<?xml version="1.0" encoding="UTF-8"?>
<svg width="149px" height="23px" viewBox="0 0 149 23" version="1.1" xmlns="http://www.w3.org/2000/svg" xmlns:xlink="http://www.w3.org/1999/xlink">
    <!-- Generator: Sketch 58 (84663) - https://sketch.com -->
    <title>xxxhdpi/CC-logo-fix 2</title>
    <desc>Created with Sketch.</desc>
    <defs>
        <linearGradient x1="0.00280795801%" y1="49.9907884%" x2="100.011934%" y2="49.9907884%" id="linearGradient-1">
            <stop stop-color="#39B54A" offset="0%"></stop>
            <stop stop-color="#21AC78" offset="52.69%"></stop>
            <stop stop-color="#00A79D" offset="100%"></stop>
        </linearGradient>
        <linearGradient x1="44.0582923%" y1="60.4153942%" x2="67.519957%" y2="20.1056734%" id="linearGradient-2">
            <stop stop-color="#00A79D" stop-opacity="0" offset="0%"></stop>
            <stop stop-color="#000000" offset="100%"></stop>
        </linearGradient>
        <linearGradient x1="-0.00073964497%" y1="49.7558935%" x2="100.016568%" y2="49.7558935%" id="linearGradient-3">
            <stop stop-color="#00A79D" stop-opacity="0" offset="0%"></stop>
            <stop stop-color="#000000" offset="100%"></stop>
        </linearGradient>
        <linearGradient x1="-0.107497244%" y1="50.1318439%" x2="99.9487321%" y2="50.1318439%" id="linearGradient-4">
            <stop stop-color="#00A79D" stop-opacity="0" offset="0%"></stop>
            <stop stop-color="#000000" offset="100%"></stop>
        </linearGradient>
        <linearGradient x1="-2336.29665%" y1="-1990.43%" x2="272.602079%" y2="248.83%" id="linearGradient-5">
            <stop stop-color="#00A79D" stop-opacity="0" offset="0%"></stop>
            <stop stop-color="#000000" offset="100%"></stop>
        </linearGradient>
        <linearGradient x1="45.7105371%" y1="37.7638448%" x2="87.9543696%" y2="77.8389771%" id="linearGradient-6">
            <stop stop-color="#00A79D" stop-opacity="0" offset="0%"></stop>
            <stop stop-color="#000000" offset="100%"></stop>
        </linearGradient>
    </defs>
    <g id="Symbols" stroke="none" stroke-width="1" fill="none" fill-rule="evenodd">
        <g id="top-nav/desktop-1440" transform="translate(-25.000000, -17.000000)" fill-rule="nonzero">
            <g id="navigation">
                <g id="CC-logo-fix-2" transform="translate(25.000000, 17.000000)">
                    <g id="CC-logo-fix">
                        <g id="Group">
                            <path d="M15.1766004,1.09318996 C9.85366375,-1.41577061 3.52488784,0.887096774 1.0325429,6.24551971 C-1.2817774,11.218638 0.534073916,17.0609319 5.06480097,19.8835125 L4.13907285,21.8637993 L6.44449192,22.8046595 L7.30791141,20.9408602 L8.48287403,18.4229391 L9.1148615,17.078853 L8.6697999,16.8637993 L9.12376273,15.8870968 C11.5627003,16.6397849 14.2508723,15.5286738 15.4258349,13.1810036 L13.0670085,12.0250896 C12.4083173,13.3064516 10.8506017,13.844086 9.54212063,13.234767 C8.19803461,12.5985663 7.61945453,10.9856631 8.251442,9.64157706 C8.88342947,8.28853047 10.4856512,7.70609319 11.820836,8.34229391 C12.4706259,8.64695341 12.9423912,9.19354839 13.1827245,9.82078853 L15.5504522,8.67383513 C15.0519832,7.51792115 14.1529588,6.53225806 12.93349,5.94982079 C10.2809229,4.6953405 7.11208431,5.85125448 5.87481307,8.52150538 C4.73545539,10.9587814 5.59887488,13.8261649 7.77967671,15.2598566 L7.32571388,16.2365591 L6.88065228,16.0215054 L6.24866482,17.3655914 C3.07982625,15.2060932 1.85145624,11.0035842 3.52488784,7.41039427 C5.35854162,3.43189964 10.0672933,1.72043011 14.0194403,3.58422939 C17.9715873,5.44802867 19.6717226,10.188172 17.8202663,14.1666667 C16.387168,17.2401434 13.2539343,18.9516129 10.0850958,18.718638 L8.865627,21.3351254 C13.4675639,22.1326165 18.2119205,19.8028674 20.2948088,15.3315412 C22.7871537,9.97311828 20.4995371,3.60215054 15.1766004,1.09318996 Z" id="Shape" fill="url(#linearGradient-1)"></path>
                            <path d="M7.76187424,15.2419355 L7.30791141,16.2275986 L8.66089867,16.8637993 L9.1148615,15.8870968 C8.66089867,15.7795699 8.12682475,15.5376344 7.76187424,15.2419355 Z" id="Shape" fill="url(#linearGradient-2)" opacity="0.3"></path>
                            <path d="M11.3846756,14.1935484 C12.5596383,14.1935484 13.6010824,13.5573477 14.2063662,12.5985663 L13.049206,12.0340502 C12.3905148,13.3154122 10.8327993,13.8530466 9.52431817,13.2437276 C8.8923307,12.9480287 8.43836787,12.437276 8.18913338,11.8369176 C8.6697999,13.2078853 9.91597237,14.1935484 11.3846756,14.1935484 Z" id="Shape" fill="url(#linearGradient-3)" opacity="0.4"></path>
                            <path d="M17.5621306,14.6774194 C16.0311187,17.4283154 13.0848109,18.9336918 10.093997,18.7096774 L9.48871324,20.0089879 C9.55102186,20.0089879 9.61333048,20.0089879 9.68454034,20.0089879 C13.1916257,20.0179211 16.2091433,17.8225806 17.5621306,14.6774194 Z" id="Shape" fill="url(#linearGradient-4)" opacity="0.4"></path>
                            <g opacity="0.4" transform="translate(2.136296, 14.784946)" id="Shape">
                                <polygon fill="url(#linearGradient-5)" points="2.70597451 5.72867384 2.80531226 5.52867384"></polygon>
                                <path d="M4.09456669,2.58064516 C3.09762871,1.89964158 2.29651784,1.02150538 1.71793776,0.0268817204 L0.0178024639,2.41935484 C0.792209642,3.46774194 1.77134515,4.38172043 2.92850531,5.10752688 L4.58413444,1.54121864 L4.09456669,2.58064516 Z" fill="url(#linearGradient-6)"></path>
                            </g>
                        </g>
                        <g id="Group" transform="translate(26.258634, 0.627240)">
                            <path d="M7.20109663,8.94265233 C6.88955351,8.50358423 6.30207221,8.17204301 5.66118351,8.17204301 C4.10346792,8.17204301 3.15993734,9.22043011 3.15993734,10.7526882 C3.15993734,12.2849462 4.09456669,13.3243728 5.66118351,13.3243728 C6.34657837,13.3243728 6.84504735,12.9659498 7.20109663,12.5537634 L9.25728121,14.7311828 C8.2781457,15.734767 6.84504735,16.09319 5.66118351,16.09319 C2.5368511,16.09319 0.0445061597,13.9964158 0.0445061597,10.7526882 C0.0445061597,7.50896057 2.54575233,5.41218638 5.66118351,5.41218638 C6.84504735,5.41218638 8.28704693,5.77060932 9.25728121,6.77419355 L7.20109663,8.94265233 Z" id="Shape" fill="#37AC70"></path>
                            <path d="M15.6305633,5.40322581 C18.7548957,5.40322581 21.2472406,7.5 21.2472406,10.7437276 C21.2472406,13.9874552 18.7459944,16.0842294 15.6305633,16.0842294 C12.5062309,16.0842294 10.0138859,13.9874552 10.0138859,10.7437276 C10.0138859,7.5 12.5062309,5.40322581 15.6305633,5.40322581 Z M15.6305633,13.3243728 C17.1882789,13.3243728 18.1318094,12.2759857 18.1318094,10.7526882 C18.1318094,9.22043011 17.1971801,8.17204301 15.6305633,8.17204301 C14.0728477,8.17204301 13.1382183,9.22043011 13.1382183,10.7526882 C13.1293171,12.2759857 14.0639465,13.3243728 15.6305633,13.3243728 Z" id="Shape" fill="#37AC70"></path>
                            <path d="M23.0719932,5.65412186 L26.0717083,5.65412186 L26.0717083,7.03405018 L26.1162145,7.03405018 C26.5345724,6.23655914 27.5493128,5.40322581 29.0714235,5.40322581 C30.4867194,5.40322581 31.6527807,5.98566308 32.1957559,7.22222222 C32.9256569,5.92293907 33.9047924,5.40322581 35.4001994,5.40322581 C38.1506801,5.40322581 38.9784946,7.34767025 38.9784946,9.82078853 L38.9784946,15.8333333 L35.8541622,15.8333333 L35.8541622,9.90143369 C35.8541622,8.96057348 35.4981129,8.16308244 34.4833725,8.16308244 C33.0502742,8.16308244 32.5874101,9.19354839 32.5874101,10.4480287 L32.5874101,15.8333333 L29.4630777,15.8333333 L29.4630777,10.4480287 C29.4630777,9.6953405 29.5075838,8.16308244 28.0655843,8.16308244 C26.4455601,8.16308244 26.1963256,9.44444444 26.1963256,10.7616487 L26.1963256,15.8333333 L23.0719932,15.8333333 L23.0719932,5.65412186 L23.0719932,5.65412186 Z" id="Shape" fill="#37AC70"></path>
                            <path d="M41.4619383,5.65412186 L44.3370362,5.65412186 L44.3370362,6.99820789 L44.3815424,6.99820789 C44.8622089,6.26344086 46.0638752,5.40322581 47.4791711,5.40322581 C50.4788863,5.40322581 52.4549598,7.58064516 52.4549598,10.6630824 C52.4549598,13.4946237 50.7103183,16.0842294 47.8352204,16.0842294 C46.5445418,16.0842294 45.3339742,15.7258065 44.6307769,14.7401434 L44.5862707,14.7401434 L44.5862707,20.609319 L41.4619383,20.609319 L41.4619383,5.65412186 L41.4619383,5.65412186 Z M46.8293812,13.3243728 C48.3870968,13.3243728 49.3217261,12.2759857 49.3217261,10.7526882 C49.3217261,9.22043011 48.3870968,8.17204301 46.8293812,8.17204301 C45.2716656,8.17204301 44.328135,9.22043011 44.328135,10.7526882 C44.3370362,12.2759857 45.2716656,13.3243728 46.8293812,13.3243728 Z" id="Shape" fill="#37AC70"></path>
                            <path d="M60.6262907,14.5609319 L60.5817845,14.5609319 C59.8963897,15.6541219 58.6502172,16.09319 57.377341,16.09319 C55.4813786,16.09319 53.7812433,15 53.7812433,12.9480287 C53.7812433,9.4265233 58.027131,9.36379928 60.6262907,9.36379928 C60.6262907,8.25268817 59.7094638,7.54480287 58.6324147,7.54480287 C57.6087731,7.54480287 56.763156,8.00179211 56.0955636,8.76344086 L54.4310333,7.04301075 C55.5792922,5.94982079 57.2438225,5.41218638 58.8816492,5.41218638 C62.5222531,5.41218638 63.5013886,7.27598566 63.5013886,10.672043 L63.5013886,15.8422939 L60.6262907,15.8422939 L60.6262907,14.5609319 Z M59.8607847,11.3799283 C58.8994517,11.3799283 56.7809585,11.4605735 56.7809585,12.8494624 C56.7809585,13.6021505 57.5731681,13.9605735 58.258563,13.9605735 C59.486933,13.9605735 60.6262907,13.3154122 60.6262907,12.0519713 L60.6262907,11.3799283 L59.8607847,11.3799283 Z" id="Shape" fill="#37AC70"></path>
                            <path d="M65.4507584,5.65412186 L68.5750908,5.65412186 L68.5750908,7.28494624 L68.619597,7.28494624 C69.2871893,6.0483871 70.1595101,5.40322581 71.5302998,5.40322581 C71.8863491,5.40322581 72.2780033,5.42114695 72.5717439,5.51075269 L72.5717439,8.3781362 C72.1355836,8.25268817 71.6994232,8.17204301 71.2365591,8.17204301 C68.8599302,8.17204301 68.5750908,9.55197133 68.5750908,11.5860215 L68.5750908,15.8422939 L65.4507584,15.8422939 L65.4507584,5.65412186 Z" id="Shape" fill="#37AC70"></path>
                            <path d="M83.1197038,14.0770609 C82.1227658,15.3584229 80.4760379,16.0842294 78.8560137,16.0842294 C75.7316813,16.0842294 73.2393363,13.9874552 73.2393363,10.7437276 C73.2393363,7.5 75.7316813,5.40322581 78.8560137,5.40322581 C81.7667165,5.40322581 83.6003703,7.5 83.6003703,10.7437276 L83.6003703,11.7293907 L76.3636687,11.7293907 C76.6129032,12.921147 77.5119277,13.7007168 78.713594,13.7007168 C79.7372356,13.7007168 80.4226305,13.1810036 80.9389019,12.4641577 L83.1197038,14.0770609 Z M80.4760379,9.59677419 C80.4938403,8.5483871 79.6838282,7.6702509 78.562273,7.6702509 C77.1914833,7.6702509 76.4437798,8.61111111 76.3547675,9.59677419 L80.4760379,9.59677419 Z" id="Shape" fill="#37AC70"></path>
                            <path d="M92.8487503,8.5483871 C92.1633554,7.81362007 91.4334544,7.43727599 90.3920103,7.43727599 C88.3536281,7.43727599 87.312184,9.09498208 87.312184,10.9587814 C87.312184,12.8225806 88.5583565,14.327957 90.498825,14.327957 C91.5402692,14.327957 92.2701702,13.9516129 92.8932564,13.2168459 L94.2284412,14.5609319 C93.2493057,15.6541219 91.9230221,16.09319 90.4810226,16.09319 C87.4457025,16.09319 85.3183081,13.9784946 85.3183081,10.9229391 C85.3183081,7.86738351 87.4011963,5.68996416 90.4810226,5.68996416 C91.9141209,5.68996416 93.2938119,6.19175627 94.2640461,7.25806452 L92.8487503,8.5483871 Z" id="Shape" fill="#000000"></path>
                            <polygon id="Shape" fill="#000000" points="95.9730827 0 97.8423414 0 97.8423414 15.8333333 95.9730827 15.8333333"></polygon>
                            <path d="M109.556363,15.8333333 L107.687104,15.8333333 L107.687104,14.3010753 L107.642598,14.3010753 C107.161931,15.3494624 105.915759,16.0842294 104.393648,16.0842294 C102.479883,16.0842294 100.815353,14.9283154 100.815353,12.2939068 L100.815353,5.90501792 L102.684612,5.90501792 L102.684612,11.7741935 C102.684612,13.6379928 103.743858,14.327957 104.927722,14.327957 C106.485438,14.327957 107.678203,13.3243728 107.678203,11.0215054 L107.678203,5.91397849 L109.547461,5.91397849 L109.547461,15.8333333 L109.556363,15.8333333 Z" id="Shape" fill="#000000"></path>
                            <path d="M112.386954,0 L114.256213,0 L114.256213,7.3297491 L114.300719,7.3297491 C114.968312,6.29928315 116.321299,5.65412186 117.736595,5.65412186 C120.771915,5.65412186 122.747988,7.89426523 122.747988,10.8691756 C122.747988,13.7992832 120.789717,16.0842294 117.736595,16.0842294 C116.40141,16.0842294 115.03062,15.4749104 114.300719,14.4086022 L114.256213,14.4086022 L114.256213,15.8333333 L112.386954,15.8333333 L112.386954,0 Z M120.754112,10.8691756 C120.754112,8.86200717 119.50794,7.41039427 117.505163,7.41039427 C115.511287,7.41039427 114.256213,8.85304659 114.256213,10.8691756 C114.256213,12.8763441 115.502386,14.327957 117.505163,14.327957 C119.499039,14.327957 120.754112,12.8853047 120.754112,10.8691756 Z" id="Shape" fill="#000000"></path>
                        </g>
                    </g>
                </g>
            </g>
        </g>
    </g>
</svg>