<?xml version="1.0" encoding="UTF-8"?>
<svg width="22px" height="21px" viewBox="0 0 22 21" version="1.1" xmlns="http://www.w3.org/2000/svg" xmlns:xlink="http://www.w3.org/1999/xlink">
    <!-- Generator: Sketch 58 (84663) - https://sketch.com -->
    <title></title>
    <desc>Created with Sketch.</desc>
    <g id="Page-1" stroke="none" stroke-width="1" fill="none" fill-rule="evenodd">
        <g id="1.1-Mobile---Dashboard-score" transform="translate(-43.000000, -76.000000)" fill="#37AC70" fill-rule="nonzero" stroke="#37AC70">
            <g id="Group-7" transform="translate(-8.000000, 56.000000)">
                <path d="M62.3571429,20.953125 C63.7373581,20.953125 65.0329181,21.2167942 66.2438616,21.7441406 C67.4548052,22.271487 68.5127373,22.9876257 69.4176897,23.8925781 C70.3226422,24.7975306 71.0355257,25.8554627 71.5563616,27.0664062 C72.0771975,28.2773498 72.3376116,29.5663994 72.3376116,30.9335938 C72.3376116,31.8190148 72.2301908,32.6718709 72.015346,33.4921875 C71.8005012,34.3125041 71.4880043,35.0872359 71.077846,35.8164062 C70.6676877,36.5455766 70.1696458,37.2193979 69.5837054,37.8378906 C68.9977649,38.4563833 68.3337091,38.9934873 67.5915179,39.4492188 C67.5394343,39.4882814 67.4840963,39.5143229 67.4255022,39.5273438 C67.3669082,39.5403646 67.3115702,39.546875 67.2594866,39.546875 C67.1553194,39.546875 67.054409,39.5208336 66.9567522,39.46875 C66.8590955,39.4166664 66.7842265,39.3450525 66.7321429,39.2539062 C66.6409966,39.0976555 66.6149552,38.9381519 66.6540179,38.7753906 C66.6930806,38.6126294 66.7842255,38.4856775 66.9274554,38.3945312 C67.4743331,38.0559879 67.972375,37.668622 68.421596,37.2324219 C68.870817,36.7962218 69.2712036,36.3242213 69.6227679,35.8164062 L68.9977679,35.4453125 C68.8415171,35.3671871 68.7438618,35.2434904 68.7047991,35.0742188 C68.6657364,34.9049471 68.6852675,34.7486986 68.7633929,34.6054688 C68.8545391,34.449218 68.981491,34.3483075 69.1442522,34.3027344 C69.3070135,34.2571612 69.4665171,34.2799475 69.6227679,34.3710938 L70.2477679,34.7226562 C70.482144,34.240883 70.667689,33.7363308 70.8044085,33.2089844 C70.9411279,32.681638 71.0290177,32.1380236 71.0680804,31.578125 L70.3844866,31.578125 C70.2152149,31.578125 70.068732,31.5162767 69.9450335,31.3925781 C69.8213349,31.2688796 69.7594866,31.1223967 69.7594866,30.953125 C69.7594866,30.7838533 69.8213349,30.6373704 69.9450335,30.5136719 C70.068732,30.3899733 70.2152149,30.328125 70.3844866,30.328125 L71.0680804,30.328125 C71.0290177,29.7552055 70.9346176,29.1985704 70.7848772,28.6582031 C70.6351369,28.1178358 70.4430815,27.6067732 70.2087054,27.125 L69.6227679,27.4570312 C69.5706843,27.483073 69.5186015,27.5026041 69.4665179,27.515625 C69.4144343,27.5286459 69.3623515,27.5351562 69.3102679,27.5351562 C69.2061007,27.5351562 69.1051902,27.5091148 69.0075335,27.4570312 C68.9098767,27.4049477 68.8284973,27.3268234 68.7633929,27.2226562 C68.6852675,27.0794264 68.6657364,26.9231779 68.7047991,26.7539062 C68.7438618,26.5846346 68.8415171,26.4609379 68.9977679,26.3828125 L69.5837054,26.03125 C69.2712038,25.5755186 68.9196448,25.1523457 68.5290179,24.7617188 C68.1383909,24.3710918 67.7152181,24.0195328 67.2594866,23.7070312 L66.9274554,24.2929688 C66.8623509,24.3971359 66.7809715,24.4752602 66.6833147,24.5273438 C66.585658,24.5794273 66.4847475,24.6054688 66.3805804,24.6054688 C66.3284968,24.6054688 66.276414,24.5989584 66.2243304,24.5859375 C66.1722468,24.5729166 66.120164,24.5533855 66.0680804,24.5273438 C65.9248505,24.4361975 65.8304504,24.3092456 65.7848772,24.1464844 C65.7393041,23.9837231 65.75558,23.8242195 65.8337054,23.6679688 L66.1852679,23.0820312 C65.6904737,22.8476551 65.1729008,22.6555997 64.6325335,22.5058594 C64.0921662,22.356119 63.5355311,22.2617189 62.9626116,22.2226562 L62.9626116,23.0039062 C62.9626116,23.1861988 62.9040184,23.3359369 62.7868304,23.453125 C62.6696423,23.5703131 62.5199042,23.6289062 62.3376116,23.6289062 C62.1683399,23.6289062 62.021857,23.5703131 61.8981585,23.453125 C61.7744599,23.3359369 61.7126116,23.1861988 61.7126116,23.0039062 L61.7126116,22.2226562 C61.152713,22.2747398 60.6090986,22.3691399 60.0817522,22.5058594 C59.5544058,22.6425788 59.0498536,22.8281238 58.5680804,23.0625 L58.9196429,23.6679688 C59.0107891,23.8242195 59.0335754,23.9837231 58.9880022,24.1464844 C58.9424291,24.3092456 58.848029,24.4361975 58.7047991,24.5273438 C58.6527155,24.5533855 58.6006327,24.5729166 58.5485491,24.5859375 C58.4964655,24.5989584 58.4443827,24.6054688 58.3922991,24.6054688 C58.275111,24.6054688 58.1676902,24.5794273 58.0700335,24.5273438 C57.9723767,24.4752602 57.8975077,24.3971359 57.8454241,24.2929688 L57.4938616,23.6875 C57.0251093,24.0000016 56.5954261,24.3515605 56.2047991,24.7421875 C55.8141722,25.1328145 55.4626132,25.5559873 55.1501116,26.0117188 L55.7751116,26.3828125 C55.9183415,26.4609379 56.0127416,26.5846346 56.0583147,26.7539062 C56.1038879,26.9231779 56.0811016,27.0794264 55.9899554,27.2226562 C55.9378718,27.3268234 55.8630027,27.4049477 55.765346,27.4570312 C55.6676892,27.5091148 55.5667788,27.5351562 55.4626116,27.5351562 C55.410528,27.5351562 55.35519,27.5286459 55.296596,27.515625 C55.2380019,27.5026041 55.1891743,27.483073 55.1501116,27.4570312 L54.5251116,27.0859375 C54.2777145,27.5807316 54.0791488,28.0983046 53.9294085,28.6386719 C53.7796682,29.1790392 53.6852681,29.7356742 53.6462054,30.3085938 L54.3297991,30.3085938 C54.5120917,30.3085938 54.6618298,30.3704421 54.7790179,30.4941406 C54.8962059,30.6178392 54.9547991,30.7643221 54.9547991,30.9335938 C54.9547991,31.1028654 54.8962059,31.2493483 54.7790179,31.3730469 C54.6618298,31.4967454 54.5120917,31.5585938 54.3297991,31.5585938 L53.6462054,31.5585938 C53.6852681,32.1184924 53.776413,32.6686171 53.9196429,33.2089844 C54.0628727,33.7493517 54.2516729,34.2604143 54.4860491,34.7421875 L55.1501116,34.3710938 C55.2933415,34.2799475 55.4495899,34.2571612 55.6188616,34.3027344 C55.7881333,34.3483075 55.91183,34.449218 55.9899554,34.6054688 C56.0811016,34.7486986 56.1038879,34.9049471 56.0583147,35.0742188 C56.0127416,35.2434904 55.9183415,35.3671871 55.7751116,35.4453125 L55.1110491,35.8359375 C55.4495925,36.3307316 55.8369584,36.7897114 56.2731585,37.2128906 C56.7093586,37.6360698 57.1943798,38.0169254 57.7282366,38.3554688 C57.8714665,38.446615 57.9626114,38.5768221 58.0016741,38.7460938 C58.0407368,38.9153654 58.0146954,39.0716139 57.9235491,39.2148438 C57.8324028,39.3580736 57.7021958,39.4492186 57.5329241,39.4882812 C57.3636524,39.5273439 57.207404,39.5013025 57.0641741,39.4101562 C56.3219829,38.9544248 55.6611822,38.4173208 55.0817522,37.7988281 C54.5023223,37.1803354 54.0107907,36.5065141 53.6071429,35.7773438 C53.203495,35.0481734 52.8975085,34.2766968 52.6891741,33.4628906 C52.4808397,32.6490845 52.3766741,31.8125043 52.3766741,30.953125 C52.3766741,29.5729098 52.6370882,28.2773498 53.1579241,27.0664062 C53.67876,25.8554627 54.3916435,24.7975306 55.296596,23.8925781 C56.2015484,22.9876257 57.2594806,22.271487 58.4704241,21.7441406 C59.6813677,21.2167942 60.9769276,20.953125 62.3571429,20.953125 Z M66.9665179,29 L63.5876116,30.953125 C63.5876116,31.2916684 63.4639149,31.5846342 63.2165179,31.8320312 C62.9691208,32.0794283 62.676155,32.203125 62.3376116,32.203125 C61.9990682,32.203125 61.7061024,32.0794283 61.4587054,31.8320312 C61.2113083,31.5846342 61.0876116,31.2916684 61.0876116,30.953125 C61.0876116,30.6145816 61.2113083,30.3216158 61.4587054,30.0742188 C61.7061024,29.8268217 61.9990682,29.703125 62.3376116,29.703125 C62.4547997,29.703125 62.5622205,29.7194009 62.6598772,29.7519531 C62.757534,29.7845054 62.8519341,29.8268227 62.9430804,29.8789062 L66.3415179,27.90625 C66.4977686,27.8281246 66.6572723,27.8118487 66.8200335,27.8574219 C66.9827947,27.902995 67.1097466,27.9973951 67.2008929,28.140625 C67.279018,28.2968758 67.2985493,28.4563794 67.2594866,28.6191406 C67.2204239,28.7819019 67.1227686,28.9088537 66.9665179,29 Z" id=""></path>
            </g>
        </g>
    </g>
</svg>