<?xml version="1.0" encoding="UTF-8"?>
<svg width="25px" height="25px" viewBox="0 0 25 25" version="1.1" xmlns="http://www.w3.org/2000/svg" xmlns:xlink="http://www.w3.org/1999/xlink">
    <!-- Generator: Sketch 58 (84663) - https://sketch.com -->
    <title>181549</title>
    <desc>Created with Sketch.</desc>
    <g id="Page-1" stroke="none" stroke-width="1" fill="none" fill-rule="evenodd">
        <g id="1.2-Mobile---Fuel" transform="translate(-264.000000, -16.000000)" fill="#37AC70" fill-rule="nonzero">
            <g id="Group-4">
                <g id="Group-5" transform="translate(248.000000, 0.000000)">
                    <g id="181549" transform="translate(16.000000, 16.000000)">
                        <path d="M12.4997917,0 C5.59642661,0 0,5.59655597 0,12.499875 C0,19.4030274 5.59642661,25 12.4997917,25 C19.4031567,25 25,19.4030274 25,12.499875 C25,5.5963893 19.4031567,0 12.4997917,0 Z M12.5378756,18.3971006 L12.5378756,18.396934 L12.461541,18.396934 L7.1221187,18.396934 C7.1221187,14.4922283 10.5515092,14.4931449 11.3125219,13.4721347 L11.3996067,13.0065467 C10.3304222,12.464708 9.57565959,11.1583616 9.57565959,9.63051297 C9.57565959,7.61765951 10.8850148,5.98564319 12.4997917,5.98564319 C14.1145686,5.98564319 15.4239237,7.61765951 15.4239237,9.63051297 C15.4239237,11.1453615 14.682578,12.4435411 13.6276438,12.9939633 L13.7268121,13.5230519 C14.5617427,14.4945616 17.877048,14.5578956 17.877048,18.3971006 L12.5378756,18.3971006 L12.5378756,18.3971006 Z" id="Shape"></path>
                    </g>
                </g>
            </g>
        </g>
    </g>
</svg>