<?xml version="1.0" encoding="UTF-8"?>
<svg width="17px" height="20px" viewBox="0 0 17 20" version="1.1" xmlns="http://www.w3.org/2000/svg" xmlns:xlink="http://www.w3.org/1999/xlink">
    <!-- Generator: Sketch 58 (84663) - https://sketch.com -->
    <title>Group</title>
    <desc>Created with Sketch.</desc>
    <g id="Page-1" stroke="none" stroke-width="1" fill="none" fill-rule="evenodd">
        <g id="1.3-Mobile---Grocery" transform="translate(-303.000000, -333.000000)" fill="#EAEAEA" fill-rule="nonzero">
            <g id="Group-4" transform="translate(0.000000, 115.000000)">
                <g id="Group-6-Copy" transform="translate(20.000000, 177.000000)">
                    <g id="Group" transform="translate(283.000000, 41.000000)">
                        <path d="M4.17272727,1.79412041e-13 L12.5181818,1.79412041e-13 C12.9105985,1.79412041e-13 13.2328902,0.28957265 13.2838803,0.664896724 L13.2909091,0.769230769 L13.2909091,2.76923077 L16.6909091,2.76923077 L16.6909091,4.30769231 L15.2799091,4.30769231 L13.2847273,18.8723077 C13.2355537,19.2191608 12.9615868,19.4859123 12.6219003,19.531546 L12.5181818,19.5384615 L4.17272727,19.5384615 C3.8214876,19.5384615 3.51878287,19.3045137 3.42717028,18.9741663 L3.40618182,18.8723077 L1.411,4.30769231 L-8.70414851e-14,4.30769231 L-8.70414851e-14,2.76923077 L3.4,2.76923077 L3.4,0.769230769 C3.4,0.38 3.69088889,0.057991453 4.06791898,0.00702635328 L4.17272727,1.79412041e-13 L12.5181818,1.79412041e-13 Z M13.719,4.30769231 L2.97190909,4.30769231 L4.84654545,18 L11.8443636,18 L13.719,4.30769231 Z M10.4318182,8.30769231 L10.4318182,9.84615385 L6.25909091,9.84615385 L6.25909091,8.30769231 L10.4318182,8.30769231 Z M11.8227273,5.53846154 L11.8227273,7.07692308 L4.86818182,7.07692308 L4.86818182,5.53846154 L11.8227273,5.53846154 Z M11.7454545,1.53846154 L4.94545455,1.53846154 L4.94545455,2.76923077 L11.7454545,2.76923077 L11.7454545,1.53846154 Z" id="Combined-Shape"></path>
                    </g>
                </g>
            </g>
        </g>
    </g>
</svg>